<svg xmlns="http://www.w3.org/2000/svg" width="48" height="48" viewBox="0 0 48 48" fill="none">
  <defs>
    <linearGradient id="bg" x1="4" y1="3" x2="44" y2="45" gradientUnits="userSpaceOnUse">
      <stop offset="0" stop-color="#27C2FF"/>
      <stop offset="0.52" stop-color="#0A88FF"/>
      <stop offset="1" stop-color="#0058E8"/>
    </linearGradient>
  </defs>

  <!-- rounded blue tile -->
  <rect x="0" y="0" width="48" height="48" rx="11" fill="url(#bg)"/>

  <!-- database -->
  <ellipse cx="19" cy="13" rx="11.2" ry="4.5" fill="white"/>

  <path d="M7.8 13V21.2C7.8 24 12.8 26.2 19 26.2C25.2 26.2 30.2 24 30.2 21.2V13C30.2 15.8 25.2 18 19 18C12.8 18 7.8 15.8 7.8 13Z" fill="white"/>
  <path d="M7.8 21.2V29.6C7.8 32.4 12.8 34.6 19 34.6C20.5 34.6 21.9 34.5 23.2 34.2V27C21.9 27.3 20.5 27.4 19 27.4C12.8 27.4 7.8 25.2 7.8 22.4V21.2Z" fill="white"/>

  <!-- two barrel lines -->
  <path d="M9.4 20.1C11 21.5 14.5 22.4 19 22.4C23.5 22.4 27 21.5 28.6 20.1" stroke="#0B73F6" stroke-width="1.5" stroke-linecap="round"/>
  <path d="M9.4 28.1C11 29.4 14.5 30.3 19 30.3C20.5 30.3 21.9 30.2 23.2 30" stroke="#0B73F6" stroke-width="1.5" stroke-linecap="round"/>

  <!-- sql badge -->
  <rect x="21.4" y="24.8" width="20.4" height="13.8" rx="3.4" fill="white"/>
  <text x="31.6" y="34.1" text-anchor="middle"
        fill="#0B73F6"
        font-family="Arial Black, Arial, Helvetica, sans-serif"
        font-size="9.2"
        font-weight="900">SQL</text>
</svg>
